<?xml version="1.0" standalone="no"?>
<!DOCTYPE svg PUBLIC "-//W3C//DTD SVG 20010904//EN"
 "http://www.w3.org/TR/2001/REC-SVG-20010904/DTD/svg10.dtd">
<svg version="1.0" xmlns="http://www.w3.org/2000/svg"
 width="1024.000000pt" height="1024.000000pt" viewBox="0 0 1024.000000 1024.000000"
 preserveAspectRatio="xMidYMid meet">

<g transform="translate(0.000000,1024.000000) scale(0.100000,-0.100000)"
fill="#000000" stroke="none">
<path d="M3248 6448 l-283 -143 1 -37 c1 -46 76 -170 135 -223 85 -76 206
-109 305 -82 l51 13 25 -40 c165 -269 377 -618 500 -825 92 -154 97 -133 -41
-192 -99 -44 -116 -58 -107 -92 6 -25 151 -220 258 -347 43 -51 72 -76 89 -78
24 -3 147 76 211 135 22 21 39 26 90 29 93 4 268 41 289 60 11 10 19 24 19 33
0 13 -179 388 -253 531 -8 16 -23 26 -40 28 -38 5 -197 -72 -197 -94 0 -10 43
-91 95 -181 52 -91 95 -170 95 -177 0 -7 -12 -18 -27 -25 -23 -11 -29 -10 -40
5 -8 10 -83 156 -168 325 -179 352 -232 444 -453 777 -89 134 -162 249 -162
256 0 6 6 20 13 31 19 29 37 97 37 141 -1 61 -18 123 -57 202 -40 79 -66 112
-88 112 -8 0 -142 -64 -297 -142z m250 -117 c27 -87 4 -164 -57 -196 -37 -19
-111 -20 -154 -1 -35 15 -107 88 -91 93 5 2 70 34 144 72 74 38 138 70 141 70
3 1 11 -16 17 -38z m706 -1576 c25 -42 46 -79 46 -84 0 -4 -8 -16 -19 -25 -18
-16 -21 -14 -70 54 -29 39 -55 78 -58 86 -6 15 22 43 43 44 6 0 32 -34 58 -75z"/>
<path d="M5600 6111 c-6 -12 -10 -117 -10 -271 l0 -252 -37 32 c-84 74 -221
107 -334 80 -139 -33 -245 -119 -307 -248 -37 -77 -37 -78 -37 -207 0 -126 1
-132 33 -200 82 -174 263 -280 444 -261 73 7 166 47 204 87 30 31 44 25 44
-18 0 -41 25 -53 114 -53 135 0 121 -74 121 663 0 523 -2 637 -14 650 -11 14
-33 17 -112 17 -87 0 -99 -2 -109 -19z m-128 -677 c70 -49 100 -100 106 -182
6 -87 -20 -149 -80 -192 -158 -115 -368 -12 -368 180 0 97 46 175 125 212 63
29 161 21 217 -18z"/>
<path d="M6145 6106 c-37 -16 -82 -68 -91 -102 -14 -54 3 -107 45 -146 37 -35
45 -38 98 -38 96 0 153 54 153 145 0 63 -26 107 -79 135 -46 23 -83 25 -126 6z"/>
<path d="M6857 5719 c-122 -18 -260 -117 -316 -227 -115 -225 -29 -504 188
-606 56 -26 81 -31 162 -34 117 -5 187 13 253 63 l46 35 0 -38 c0 -94 -49
-180 -124 -219 -17 -9 -61 -18 -97 -21 -96 -7 -191 19 -290 79 -53 32 -80 21
-122 -49 -56 -91 -57 -105 -5 -143 58 -42 154 -86 231 -104 83 -20 239 -19
308 1 174 51 294 175 334 346 20 85 22 829 2 868 -12 24 -17 25 -111 28 -106
3 -126 -4 -126 -44 0 -13 -2 -24 -5 -24 -3 0 -25 15 -49 34 -64 49 -175 71
-279 55z m201 -244 c128 -54 168 -226 76 -333 -93 -109 -292 -93 -354 28 -57
112 -22 243 79 297 53 28 142 31 199 8z"/>
<path d="M6087 5672 c-15 -17 -17 -61 -17 -430 l0 -411 22 -15 c16 -11 46 -16
104 -16 135 0 124 -39 124 450 1 382 -1 416 -17 427 -10 8 -50 13 -108 13 -76
0 -95 -3 -108 -18z"/>
<path d="M3392 4982 c-14 -2 -27 -14 -33 -30 -22 -57 35 -102 86 -68 54 35 14
109 -53 98z"/>
<path d="M3553 4740 c-47 -20 -57 -87 -18 -125 48 -49 135 -17 135 50 0 60
-60 99 -117 75z"/>
<path d="M3221 4621 c-25 -25 -27 -49 -5 -79 13 -19 24 -22 57 -20 33 2 44 9
57 31 13 24 13 30 0 55 -21 36 -79 43 -109 13z"/>
<path d="M4925 4585 c-52 -51 -19 -140 57 -152 32 -5 41 -1 69 26 28 29 31 36
26 74 -7 52 -36 77 -89 77 -28 0 -46 -7 -63 -25z"/>
<path d="M5290 4530 c-51 -51 15 -125 76 -85 32 20 33 68 2 89 -30 21 -54 20
-78 -4z"/>
<path d="M3704 4439 c-76 -9 -138 -40 -230 -116 -355 -290 -344 -283 -498
-293 -107 -7 -111 -9 -138 -39 -30 -33 -37 -85 -18 -122 28 -52 -113 -49 2345
-49 2010 0 2279 2 2305 15 62 32 69 108 16 161 l-34 34 -139 0 c-180 0 -228
13 -415 105 -206 102 -249 106 -457 44 -127 -38 -159 -27 -372 131 -164 123
-243 148 -366 116 -74 -18 -124 -48 -203 -121 -32 -29 -72 -61 -89 -69 -39
-21 -125 -20 -185 0 -46 16 -49 16 -127 -11 -100 -34 -116 -29 -200 67 -84 94
-131 120 -228 126 -97 5 -157 -17 -265 -97 -147 -109 -190 -108 -379 13 -157
100 -212 117 -323 105z"/>
</g>
</svg>
